<svg version="1.0" xmlns="http://www.w3.org/2000/svg" xmlns:xlink="http://www.w3.org/1999/xlink" width="100%" height="100%" viewBox="0 0 250.000000 80.000000" preserveAspectRatio="xMidYMid meet" color-interpolation-filters="sRGB" class="el-tooltip" style="margin: auto;">
    <rect
            x="0" y="0" width="100%" height="100%" fill="#5e2750" fill-opacity="1" class="background"></rect>
    <g fill="#ffffff" class="icon-text-wrapper icon-svg-group iconsvg" transform="translate(8.951171875,10)">
        <g fill="#ffffff" class="iconsvg-imagesvg icon_container" transform="translate(0,0)">
            <rect fill="#ffffff" fill-opacity="0" stroke-width="2" x="0" y="0" width="60" height="60" class="image-rect"></rect>
            <svg viewBox="0 0 60 59.615423929706765" x="0" y="0" width="60" height="60" class="image-svg-svg bn">
                <g mask="url(#b4f2d724-b778-4e3b-b159-9c6674013fb3)">
                    <g>
                        <svg xmlns="http://www.w3.org/2000/svg" xmlns:xlink="http://www.w3.org/1999/xlink" version="1.1" x="0" y="0" viewBox="-0.20631885528564453 -0.0006113052368164062 64.4134750366211 64.0006103515625" enable-background="new 0 0 64 64" xml:space="preserve" width="60" height="59.615423929706765" filtersec="colorsf436706868">
              <path d="M59.178,28.276c-0.132-1.09-0.04-2.357,0.059-3.699c0.063-0.863,0.209-2.867,0.052-3.352  c-0.201-0.459-1.639-1.861-2.252-2.459c-0.966-0.942-1.878-1.832-2.507-2.742c-0.624-0.905-1.131-2.072-1.669-3.308  c-0.344-0.789-1.146-2.631-1.51-2.986c-0.392-0.313-2.315-0.887-3.138-1.132c-1.293-0.386-2.515-0.75-3.491-1.263  c-0.973-0.51-1.965-1.308-3.014-2.15c-0.677-0.542-2.242-1.8-2.727-1.945c0.012,0.004-0.057-0.005-0.192-0.004  c-0.763,0-2.007,0.243-3.105,0.458c-1.33,0.262-2.582,0.507-3.685,0.507c-1.1,0-2.351-0.245-3.674-0.505  c-1.102-0.216-2.349-0.46-3.114-0.46c-0.125,0-0.194,0.007-0.217,0.009c-0.464,0.143-1.972,1.354-2.695,1.936  c-1.053,0.846-2.047,1.644-3.022,2.156c-0.975,0.512-2.197,0.876-3.49,1.262c-0.822,0.245-2.747,0.819-3.145,1.138  c-0.357,0.35-1.159,2.191-1.501,2.978c-0.54,1.238-1.047,2.405-1.673,3.313c-0.627,0.907-1.539,1.797-2.505,2.739  c-0.614,0.598-2.051,2-2.255,2.466c-0.154,0.477-0.007,2.479,0.055,3.333c0.098,1.348,0.19,2.619,0.058,3.713  s-0.527,2.307-0.945,3.592c-0.266,0.817-0.887,2.727-0.851,3.232c0.085,0.491,1.146,2.197,1.598,2.926  c0.712,1.146,1.385,2.229,1.776,3.259c0.389,1.026,0.604,2.28,0.83,3.605c0.146,0.857,0.485,2.838,0.753,3.271  c0.305,0.396,2.037,1.415,2.777,1.851c1.163,0.684,2.261,1.329,3.085,2.059c0.822,0.728,1.595,1.739,2.414,2.811  c0.524,0.688,1.744,2.283,2.181,2.542c0.454,0.209,2.458,0.306,3.314,0.348c1.35,0.064,2.625,0.125,3.693,0.39  c1.069,0.263,2.226,0.8,3.45,1.369c0.834,0.388,2.546,1.184,3.102,1.232c0.557-0.049,2.272-0.846,3.101-1.23  c1.226-0.569,2.384-1.108,3.45-1.371c1.071-0.265,2.346-0.325,3.696-0.39c0.854-0.042,2.859-0.139,3.321-0.353  c0.429-0.253,1.602-1.787,2.165-2.525c0.824-1.079,1.598-2.093,2.424-2.824c0.823-0.728,1.921-1.373,3.084-2.057  c0.739-0.436,2.471-1.454,2.781-1.859c0.264-0.425,0.602-2.405,0.746-3.251c0.228-1.336,0.442-2.59,0.832-3.616  c0.392-1.029,1.063-2.112,1.775-3.259c0.453-0.729,1.514-2.435,1.6-2.935c0.035-0.498-0.563-2.337-0.851-3.222  C59.705,30.585,59.311,29.372,59.178,28.276z"></path>
                            <path d="M62.39,27.888c-0.233-1.938,0.617-5.98-0.075-7.806c-0.691-1.825-4.011-4.288-5.12-5.894  c-1.108-1.608-2.233-5.583-3.695-6.877c-1.46-1.294-5.544-1.933-7.272-2.84s-4.572-3.904-6.468-4.372  C37.864-0.368,33.952,0.964,32,0.964c-1.952,0-5.863-1.333-7.759-0.865c-1.895,0.467-4.739,3.464-6.467,4.372  c-1.729,0.907-5.813,1.546-7.273,2.84c-1.462,1.294-2.587,5.27-3.695,6.877c-1.109,1.606-4.429,4.068-5.121,5.894  c-0.692,1.826,0.161,5.869-0.075,7.806c-0.235,1.938-2.031,5.661-1.795,7.6c0.235,1.938,2.869,5.122,3.561,6.947  c0.692,1.824,0.833,5.954,1.943,7.561c1.108,1.606,4.92,3.204,6.382,4.498c1.46,1.293,3.506,4.886,5.233,5.793  s5.846,0.549,7.741,1.017C26.569,61.77,30.049,64,32,64c1.952,0,5.431-2.23,7.327-2.697c1.895-0.468,6.013-0.109,7.74-1.017  c1.729-0.907,3.773-4.5,5.233-5.793c1.462-1.294,5.274-2.892,6.382-4.498c1.109-1.606,1.251-5.736,1.943-7.561  c0.691-1.825,3.325-5.01,3.561-6.947C64.421,33.549,62.625,29.826,62.39,27.888z M59.847,38.32  c-0.697,1.123-1.356,2.184-1.729,3.163c-0.37,0.977-0.579,2.203-0.802,3.503c-0.244,1.428-0.529,2.984-0.839,3.482  c-0.361,0.475-1.715,1.292-2.957,2.022c-1.139,0.669-2.214,1.301-2.997,1.994c-0.785,0.695-1.543,1.688-2.345,2.738  c-0.877,1.147-1.85,2.39-2.354,2.687c-0.541,0.251-2.116,0.345-3.553,0.414c-1.321,0.063-2.569,0.124-3.589,0.376  c-1.015,0.25-2.148,0.777-3.349,1.334c-1.294,0.603-2.725,1.247-3.318,1.284H32l-0.018-0.001c-0.591-0.036-2.019-0.681-3.31-1.28  c-1.208-0.561-2.34-1.087-3.357-1.337c-1.017-0.252-2.265-0.313-3.587-0.376c-1.437-0.069-3.013-0.163-3.545-0.41  c-0.514-0.302-1.487-1.546-2.359-2.689c-0.806-1.056-1.563-2.046-2.346-2.739s-1.859-1.325-2.997-1.994  c-1.242-0.73-2.596-1.549-2.953-2.016c-0.315-0.507-0.6-2.062-0.842-3.479c-0.224-1.31-0.433-2.536-0.803-3.513  c-0.372-0.979-1.032-2.04-1.729-3.163c-0.76-1.223-1.579-2.575-1.678-3.153c-0.043-0.593,0.428-2.1,0.873-3.466  c0.41-1.261,0.796-2.45,0.923-3.49c0.126-1.04,0.036-2.287-0.061-3.605c-0.105-1.434-0.202-3.012-0.02-3.571  c0.238-0.546,1.355-1.663,2.386-2.667c0.946-0.923,1.839-1.794,2.435-2.657c0.595-0.863,1.092-2.006,1.62-3.217  c0.575-1.322,1.224-2.765,1.644-3.174c0.465-0.374,1.974-0.842,3.353-1.254c1.267-0.377,2.463-0.733,3.392-1.221  c0.927-0.487,1.9-1.269,2.931-2.097c1.121-0.9,2.363-1.875,2.926-2.044l0.047-0.014l0.049,0.003  c0.003-0.004,0.089-0.012,0.238-0.012c0.819,0,2.094,0.25,3.218,0.469c1.299,0.255,2.523,0.495,3.57,0.495  c1.048,0,2.274-0.241,3.571-0.495c1.13-0.221,2.402-0.469,3.219-0.469c0.221,0,0.315,0.018,0.332,0.021  c0.563,0.167,1.805,1.143,2.927,2.044c1.036,0.832,2.007,1.612,2.933,2.098c0.929,0.488,2.125,0.844,3.392,1.222  c1.379,0.412,2.889,0.881,3.347,1.249c0.427,0.415,1.074,1.857,1.648,3.177c0.528,1.212,1.026,2.356,1.619,3.217  c0.598,0.865,1.49,1.736,2.437,2.659c1.03,1.004,2.149,2.122,2.384,2.661c0.185,0.567,0.088,2.146-0.018,3.581  c-0.096,1.321-0.187,2.563-0.061,3.599c0.127,1.042,0.513,2.231,0.922,3.489c0.446,1.369,0.917,2.877,0.874,3.462  C61.424,35.747,60.606,37.098,59.847,38.32z"></path>
            </svg>
                    </g>
                    <g filter="url(#colors9999249709)">
                        <svg xmlns="http://www.w3.org/2000/svg" viewBox="0 0 52 52" width="35" height="34.77566395899561" x="12.5" y="12.419879985355578">
                            <path d="M51 26c0 13.8-11.2 25-25 25S1 39.8 1 26 12.2 1 26 1s25 11.2 25 25zM26 44.6c10.3 0 18.6-8.3 18.6-18.6M26 38.2c6.7 0 12.1-5.4 12.1-12.1V4.2M44.5 26V9.2M7.4 26c0 10.3 8.3 18.6 18.6 18.6M13.8 4.1V26c0 6.7 5.4 12.1 12.1 12.1M7.4 26V9.2" fill="none" stroke="#282828" stroke-width="2" stroke-miterlimit="10"></path>
                        </svg>
                    </g>
                </g>
                <mask id="b4f2d724-b778-4e3b-b159-9c6674013fb3">
                    <g fill="white">
                        <svg xmlns="http://www.w3.org/2000/svg" xmlns:xlink="http://www.w3.org/1999/xlink" version="1.1" x="0" y="0" viewBox="-0.20631885528564453 -0.0006113052368164062 64.4134750366211 64.0006103515625" enable-background="new 0 0 64 64" xml:space="preserve" width="60" height="59.615423929706765" filtersec="colorsf436706868">
              <path d="M59.178,28.276c-0.132-1.09-0.04-2.357,0.059-3.699c0.063-0.863,0.209-2.867,0.052-3.352  c-0.201-0.459-1.639-1.861-2.252-2.459c-0.966-0.942-1.878-1.832-2.507-2.742c-0.624-0.905-1.131-2.072-1.669-3.308  c-0.344-0.789-1.146-2.631-1.51-2.986c-0.392-0.313-2.315-0.887-3.138-1.132c-1.293-0.386-2.515-0.75-3.491-1.263  c-0.973-0.51-1.965-1.308-3.014-2.15c-0.677-0.542-2.242-1.8-2.727-1.945c0.012,0.004-0.057-0.005-0.192-0.004  c-0.763,0-2.007,0.243-3.105,0.458c-1.33,0.262-2.582,0.507-3.685,0.507c-1.1,0-2.351-0.245-3.674-0.505  c-1.102-0.216-2.349-0.46-3.114-0.46c-0.125,0-0.194,0.007-0.217,0.009c-0.464,0.143-1.972,1.354-2.695,1.936  c-1.053,0.846-2.047,1.644-3.022,2.156c-0.975,0.512-2.197,0.876-3.49,1.262c-0.822,0.245-2.747,0.819-3.145,1.138  c-0.357,0.35-1.159,2.191-1.501,2.978c-0.54,1.238-1.047,2.405-1.673,3.313c-0.627,0.907-1.539,1.797-2.505,2.739  c-0.614,0.598-2.051,2-2.255,2.466c-0.154,0.477-0.007,2.479,0.055,3.333c0.098,1.348,0.19,2.619,0.058,3.713  s-0.527,2.307-0.945,3.592c-0.266,0.817-0.887,2.727-0.851,3.232c0.085,0.491,1.146,2.197,1.598,2.926  c0.712,1.146,1.385,2.229,1.776,3.259c0.389,1.026,0.604,2.28,0.83,3.605c0.146,0.857,0.485,2.838,0.753,3.271  c0.305,0.396,2.037,1.415,2.777,1.851c1.163,0.684,2.261,1.329,3.085,2.059c0.822,0.728,1.595,1.739,2.414,2.811  c0.524,0.688,1.744,2.283,2.181,2.542c0.454,0.209,2.458,0.306,3.314,0.348c1.35,0.064,2.625,0.125,3.693,0.39  c1.069,0.263,2.226,0.8,3.45,1.369c0.834,0.388,2.546,1.184,3.102,1.232c0.557-0.049,2.272-0.846,3.101-1.23  c1.226-0.569,2.384-1.108,3.45-1.371c1.071-0.265,2.346-0.325,3.696-0.39c0.854-0.042,2.859-0.139,3.321-0.353  c0.429-0.253,1.602-1.787,2.165-2.525c0.824-1.079,1.598-2.093,2.424-2.824c0.823-0.728,1.921-1.373,3.084-2.057  c0.739-0.436,2.471-1.454,2.781-1.859c0.264-0.425,0.602-2.405,0.746-3.251c0.228-1.336,0.442-2.59,0.832-3.616  c0.392-1.029,1.063-2.112,1.775-3.259c0.453-0.729,1.514-2.435,1.6-2.935c0.035-0.498-0.563-2.337-0.851-3.222  C59.705,30.585,59.311,29.372,59.178,28.276z"></path>
                            <path d="M62.39,27.888c-0.233-1.938,0.617-5.98-0.075-7.806c-0.691-1.825-4.011-4.288-5.12-5.894  c-1.108-1.608-2.233-5.583-3.695-6.877c-1.46-1.294-5.544-1.933-7.272-2.84s-4.572-3.904-6.468-4.372  C37.864-0.368,33.952,0.964,32,0.964c-1.952,0-5.863-1.333-7.759-0.865c-1.895,0.467-4.739,3.464-6.467,4.372  c-1.729,0.907-5.813,1.546-7.273,2.84c-1.462,1.294-2.587,5.27-3.695,6.877c-1.109,1.606-4.429,4.068-5.121,5.894  c-0.692,1.826,0.161,5.869-0.075,7.806c-0.235,1.938-2.031,5.661-1.795,7.6c0.235,1.938,2.869,5.122,3.561,6.947  c0.692,1.824,0.833,5.954,1.943,7.561c1.108,1.606,4.92,3.204,6.382,4.498c1.46,1.293,3.506,4.886,5.233,5.793  s5.846,0.549,7.741,1.017C26.569,61.77,30.049,64,32,64c1.952,0,5.431-2.23,7.327-2.697c1.895-0.468,6.013-0.109,7.74-1.017  c1.729-0.907,3.773-4.5,5.233-5.793c1.462-1.294,5.274-2.892,6.382-4.498c1.109-1.606,1.251-5.736,1.943-7.561  c0.691-1.825,3.325-5.01,3.561-6.947C64.421,33.549,62.625,29.826,62.39,27.888z M59.847,38.32  c-0.697,1.123-1.356,2.184-1.729,3.163c-0.37,0.977-0.579,2.203-0.802,3.503c-0.244,1.428-0.529,2.984-0.839,3.482  c-0.361,0.475-1.715,1.292-2.957,2.022c-1.139,0.669-2.214,1.301-2.997,1.994c-0.785,0.695-1.543,1.688-2.345,2.738  c-0.877,1.147-1.85,2.39-2.354,2.687c-0.541,0.251-2.116,0.345-3.553,0.414c-1.321,0.063-2.569,0.124-3.589,0.376  c-1.015,0.25-2.148,0.777-3.349,1.334c-1.294,0.603-2.725,1.247-3.318,1.284H32l-0.018-0.001c-0.591-0.036-2.019-0.681-3.31-1.28  c-1.208-0.561-2.34-1.087-3.357-1.337c-1.017-0.252-2.265-0.313-3.587-0.376c-1.437-0.069-3.013-0.163-3.545-0.41  c-0.514-0.302-1.487-1.546-2.359-2.689c-0.806-1.056-1.563-2.046-2.346-2.739s-1.859-1.325-2.997-1.994  c-1.242-0.73-2.596-1.549-2.953-2.016c-0.315-0.507-0.6-2.062-0.842-3.479c-0.224-1.31-0.433-2.536-0.803-3.513  c-0.372-0.979-1.032-2.04-1.729-3.163c-0.76-1.223-1.579-2.575-1.678-3.153c-0.043-0.593,0.428-2.1,0.873-3.466  c0.41-1.261,0.796-2.45,0.923-3.49c0.126-1.04,0.036-2.287-0.061-3.605c-0.105-1.434-0.202-3.012-0.02-3.571  c0.238-0.546,1.355-1.663,2.386-2.667c0.946-0.923,1.839-1.794,2.435-2.657c0.595-0.863,1.092-2.006,1.62-3.217  c0.575-1.322,1.224-2.765,1.644-3.174c0.465-0.374,1.974-0.842,3.353-1.254c1.267-0.377,2.463-0.733,3.392-1.221  c0.927-0.487,1.9-1.269,2.931-2.097c1.121-0.9,2.363-1.875,2.926-2.044l0.047-0.014l0.049,0.003  c0.003-0.004,0.089-0.012,0.238-0.012c0.819,0,2.094,0.25,3.218,0.469c1.299,0.255,2.523,0.495,3.57,0.495  c1.048,0,2.274-0.241,3.571-0.495c1.13-0.221,2.402-0.469,3.219-0.469c0.221,0,0.315,0.018,0.332,0.021  c0.563,0.167,1.805,1.143,2.927,2.044c1.036,0.832,2.007,1.612,2.933,2.098c0.929,0.488,2.125,0.844,3.392,1.222  c1.379,0.412,2.889,0.881,3.347,1.249c0.427,0.415,1.074,1.857,1.648,3.177c0.528,1.212,1.026,2.356,1.619,3.217  c0.598,0.865,1.49,1.736,2.437,2.659c1.03,1.004,2.149,2.122,2.384,2.661c0.185,0.567,0.088,2.146-0.018,3.581  c-0.096,1.321-0.187,2.563-0.061,3.599c0.127,1.042,0.513,2.231,0.922,3.489c0.446,1.369,0.917,2.877,0.874,3.462  C61.424,35.747,60.606,37.098,59.847,38.32z"></path>
            </svg>
                    </g>
                    <g fill="black">
                        <svg xmlns="http://www.w3.org/2000/svg" viewBox="0 0 52 52" width="35" height="34.77566395899561" x="12.5" y="12.419879985355578">
                            <path d="M51 26c0 13.8-11.2 25-25 25S1 39.8 1 26 12.2 1 26 1s25 11.2 25 25zM26 44.6c10.3 0 18.6-8.3 18.6-18.6M26 38.2c6.7 0 12.1-5.4 12.1-12.1V4.2M44.5 26V9.2M7.4 26c0 10.3 8.3 18.6 18.6 18.6M13.8 4.1V26c0 6.7 5.4 12.1 12.1 12.1M7.4 26V9.2" fill="none" stroke="black" stroke-width="2" stroke-miterlimit="10"></path>
                        </svg>
                    </g>
                </mask>
            </svg>
            <defs>
                <filter id="colors9999249709">
                    <feColorMatrix type="matrix" values="0 0 0 0 0.99609375  0 0 0 0 0.99609375  0 0 0 0 0.99609375  0 0 0 1 0" class="icon-fecolormatrix"></feColorMatrix>
                </filter>
                <filter id="colorsf436706868">
                    <feColorMatrix type="matrix" values="0 0 0 0 0.99609375  0 0 0 0 0.99609375  0 0 0 0 0.99609375  0 0 0 1 0" class="icon-fecolormatrix"></feColorMatrix>
                </filter>
                <filter id="colorsb6895317157">
                    <feColorMatrix type="matrix" values="0 0 0 0 0  0 0 0 0 0  0 0 0 0 0  0 0 0 1 0" class="icon-fecolormatrix"></feColorMatrix>
                </filter>
            </defs>
        </g>
        <g transform="translate(67,12.879743576049805)">
            <g fill-rule="" class="tp-name iconsvg-namesvg">
                <g>
                    <path d="M17.26-15.82C18.38-14.50 20.54-16.18 19.38-17.50C17.22-19.94 14.90-20.90 12.01-20.90C5.93-20.90 1.72-16.86 1.40-10.93C1.24-8.01 2.08-5.17 3.76-3.08C5.77-0.76 8.81 0.48 11.81 0.48C14.78 0.48 17.78-0.68 19.74-3.08C21.10-4.65 18.70-6.21 17.70-4.85C16.30-2.92 13.98-2.20 11.85-2.20C9.69-2.20 7.49-3.12 6.09-4.85C4.89-6.29 4.37-8.33 4.37-10.13C4.37-14.70 7.33-18.26 11.69-18.26C13.70-18.26 15.74-17.58 17.26-15.82ZM26.95-19.06C26.95-20.98 24.11-20.82 24.11-19.06L24.11-1.32C24.11-0.48 24.71 0.08 25.59 0.08C26.35 0.08 27.03-0.48 27.03-1.32L27.03-10.37C27.03-14.42 28.79-17.70 32.92-17.70C33.84-17.70 34.44-18.18 34.44-19.06C34.44-19.98 33.84-20.46 32.92-20.46C30.64-20.46 28.23-19.74 26.95-17.06ZM45.41-1.40L41.89 5.77C41.13 7.65 43.65 8.65 44.61 6.77L57.47-18.78C58.11-20.46 55.47-21.43 54.74-19.86L47.10-4.37L39.37-19.82C38.57-21.63 35.92-20.26 36.64-18.66ZM81.02-9.53C81.14-14.18 78.93-18.14 74.57-19.94L74.61-19.90C73.37-20.42 72.00-20.66 70.76-20.66C68.36-20.66 65.56-19.62 64.20-17.14L64.20-19.02C64.20-19.90 63.76-20.42 62.83-20.42C61.91-20.42 61.35-19.90 61.35-19.02L61.35 5.85C61.35 7.69 64.28 7.69 64.28 5.85L64.28-2.76C65.48-0.64 68.08 0.44 70.76 0.44C76.77 0.44 80.86-3.84 81.02-9.53ZM71.00-17.90C72.53-17.78 73.97-17.30 75.13-16.38C77.29-14.58 78.13-12.17 78.09-9.57C78.05-8.53 77.81-7.45 77.49-6.61C76.33-3.84 73.49-2.32 70.64-2.32C67.00-2.48 64.28-4.97 64.28-8.49L64.28-11.65C64.28-15.58 67.36-17.90 71.00-17.90ZM90.63-20.38L90.63-25.03C90.63-26.91 87.74-26.95 87.74-25.03L87.74-20.38L85.10-20.38C83.34-20.38 83.22-17.86 85.10-17.86L87.74-17.86L87.74-7.05C87.74-3.24 88.90 0.28 93.71 0.28C94.79 0.28 95.79 0.16 96.79-0.40C98.60-1.40 97.27-3.76 95.59-2.80C95.19-2.56 94.31-2.36 93.71-2.36C90.99-2.36 90.63-4.77 90.63-7.05L90.63-17.86L94.99-17.86C96.79-17.86 96.79-20.38 94.99-20.38ZM105.68-19.90C101.84-18.42 99.60-14.70 99.52-10.65C99.40-6.73 100.96-3.32 104.00-1.24C105.68-0.04 107.85 0.48 109.77 0.48C112.13 0.48 115.10-0.84 116.26-3.16L116.26-1.24C116.26-0.36 116.78 0.20 117.70 0.20C118.58 0.20 119.18-0.36 119.18-1.24L119.18-19.02C119.18-19.86 118.58-20.46 117.70-20.46C116.78-20.46 116.26-19.86 116.26-19.02L116.26-17.50C114.82-19.86 112.21-20.58 109.93-20.62C108.41-20.66 106.97-20.46 105.64-19.86ZM109.49-2.28C108.01-2.40 106.57-2.88 105.36-3.80C103.20-5.61 102.36-8.01 102.44-10.61C102.48-11.65 102.68-12.73 103.04-13.58C104.16-16.38 107.05-17.90 109.89-17.86C113.49-17.70 116.26-15.66 116.26-11.69L116.26-8.53C116.06-4.53 113.17-2.28 109.49-2.28ZM123.87-4.53C124.67-0.52 129.79 0.32 133.12 0.32C136.44 0.32 142.21-0.92 142.21-5.97C142.21-10.97 137.52-11.37 133.12-11.77C129.91-12.01 126.95-11.97 126.95-14.54C126.95-17.02 130.43-18.02 132.76-18.02C134.56-18.02 137.92-17.86 138.80-15.54C139.32-14.02 142.09-14.78 141.53-16.58C140.12-20.18 135.84-20.70 132.76-20.70C128.91-20.70 124.03-18.86 124.03-14.58C124.03-9.65 128.67-9.29 133.00-8.89C136.24-8.65 139.28-8.53 139.28-5.97C139.28-3.20 135.08-2.32 133.12-2.32C130.19-2.32 127.07-3.24 126.67-5.05C126.31-7.05 123.39-6.21 123.87-4.53ZM163.55-1.20C163.55-0.32 164.15 0.24 165.03 0.24C165.96 0.24 166.48-0.32 166.48-1.20L166.48-11.77C166.48-17.54 162.03-20.74 157.39-20.74C154.38-20.74 151.26-19.58 149.82-16.78L149.82-25.19C149.82-26.87 146.85-26.91 146.85-25.19L146.85-1.20C146.85-0.32 147.45 0.24 148.37 0.24C149.30 0.24 149.82-0.32 149.82-1.20L149.82-11.17C149.82-15.30 153.46-18.02 157.35-18.02C160.59-18.02 163.55-15.46 163.55-11.77Z" transform="translate(-1.3823435699016535, 26.466180797886032)"></path>
                </g>
                <!----> <!----> <!----> <!----> <!----> <!----> <!---->
            </g>
            <!---->
        </g>
    </g>
</svg>
